<svg width="683" height="683" viewBox="0 0 683 683" fill="none" xmlns="http://www.w3.org/2000/svg">
<g clip-path="url(#clip0_4_10)">
<path d="M171.067 1.86665C141.2 9.19998 119.2 39.3333 121.867 69.4666C124.4 97.7333 143.467 120.533 170.8 128.133C179.733 130.533 196.667 130 206.267 126.933C217.867 123.2 224.8 118.933 233.733 109.467C247.733 94.9333 254.267 73.8666 250.8 54.8C244 16.9333 208 -7.06669 171.067 1.86665Z" fill="#F0788C"/>
<path d="M509.333 3.06665C492.4 9.19999 478.933 20.6667 470.8 35.8667C464.8 47.2 462.667 55.8667 462.667 69.4667C462.667 83.2 465.733 94.4 472.667 106C478.667 116 483.867 121.467 493.6 128C533.6 154.667 588.533 133.2 600.667 86C608.667 54.6667 592.8 21.0667 562.933 6.26665C551.6 0.666651 551.467 0.666651 534.8 0.266651C520 -1.54192e-05 516.933 0.266651 509.333 3.06665Z" fill="#65D2E6"/>
<path d="M128.533 142.667C104.133 149.067 83.4666 166.267 73.3333 188.667C71.3333 193.067 57.7333 236.533 43.2 285.333C14.4 381.467 13.8666 384.133 19.6 393.467C28.6666 408 53.3333 407.6 62 392.667C63.7333 389.733 76.2666 349.867 89.9999 304C103.733 258.133 115.467 219.6 116.267 218.267C118.267 214.533 124.533 215.733 125.067 220C125.467 223.6 76.8 388.133 64.8 424C60.6666 436 57.3333 446.4 57.3333 446.933C57.3333 447.467 115.467 448 186.533 448H315.867L307.2 422.267C295.6 387.733 246.667 224.933 246.667 220.8C246.667 216.4 251.467 214.8 254.667 218.133C256.133 219.733 266.933 253.6 282 304C295.733 349.867 307.733 389.067 308.667 391.333C310.667 396.267 316.8 402 321.733 403.867C326.533 405.733 336.133 405.733 340.933 403.867C348.933 400.8 355.867 390.533 356 381.6C356 375.733 304.8 199.2 300 188.667C289.733 166 269.067 148.933 244.267 142.533C235.2 140.267 229.467 140 186.133 140.133C143.6 140.133 136.933 140.4 128.533 142.667Z" fill="#F0788C"/>
<path d="M456 150.267C430.4 154.533 405.733 175.067 397.2 199.2C392.4 212.933 391.867 225.6 392.267 314C392.667 397.333 392.667 399.467 395.467 404.533C403.067 419.333 422.267 423.467 434.133 413.067C443.867 404.533 443.2 410 444 316.667L444.667 232.667L447.733 232.267C455.067 231.2 454.667 217.467 454.667 444.533C454.667 677.2 454 661.467 463.467 671.2C471.067 678.933 477.867 681.867 488.667 682C496.533 682 499.067 681.333 505.2 678C512.133 674.267 518.4 667.333 521.733 660C522.933 657.6 523.467 624.533 524 542.667L524.667 428.667L527.733 428.267C534.933 427.2 534.667 421.867 534.667 542.533C534.667 666.533 534.4 661.867 543.467 671.2C551.067 679.067 557.867 681.867 568.8 682C576.933 682 579.067 681.467 584.667 678C592.267 673.333 599.333 664.667 601.333 657.6C602.133 654.267 602.667 583.733 602.667 444.4C602.667 329.867 603.067 235.333 603.467 234.133C604 232.933 605.867 232 608 232C610.133 232 612 232.933 612.533 234.133C612.933 235.333 613.333 272.667 613.333 317.067C613.333 392.933 613.6 398.267 615.867 403.333C618.8 409.6 624.4 415.2 629.733 417.2C638.533 420.533 651.733 417.733 657.467 411.2C664.267 403.467 664 407.067 664 304.933C664 200.133 664.267 204 655.6 187.333C650.133 177.067 637.6 164.533 627.067 158.933C622.533 156.533 614.267 153.467 608.533 152C598.933 149.467 593.867 149.333 528.8 149.467C490.533 149.6 457.867 150 456 150.267Z" fill="#65D2E6"/>
<path d="M126.533 558.267C126.4 612.4 126.533 658.133 126.667 660C127.067 666.533 133.6 674.933 141.333 679.067C147.333 682.267 149.867 682.8 155.6 682.4C164.133 681.733 171.867 676.8 176.933 669.067L180.667 663.467L181.067 561.733L181.333 460H154H126.667L126.533 558.267Z" fill="#F0788C"/>
<path d="M192.267 561.733L192.667 663.467L196.4 669.067C201.467 676.8 209.2 681.733 217.733 682.4C227.6 683.2 237.733 677.733 243.333 668.667L247.333 662.267L247.733 561.067L248.133 460H220H192L192.267 561.733Z" fill="#F0788C"/>
</g>
<defs>
<clipPath id="clip0_4_10">
<rect width="682.667" height="682.667" fill="white"/>
</clipPath>
</defs>
</svg>
