<svg width="683" height="683" viewBox="0 0 683 683" fill="none" xmlns="http://www.w3.org/2000/svg">
<path d="M332.133 74.8C316.667 77.4667 300.533 90 293.733 104.8C284.8 124.4 288.533 148.133 303.2 163.067C332.4 193.2 382.4 180.267 392.8 140C398.133 119.067 390.4 97.2 373.2 84.5334C361.733 76.1334 346.267 72.5334 332.133 74.8Z" fill="#F0788C"/>
<path d="M288.667 200.133C274.4 205.067 261.067 216.667 254.267 230C253.2 232.267 249.733 242.267 246.8 252.4C243.733 262.4 236.533 285.467 230.8 303.6C214.533 354.4 210.267 370.133 211.2 375.467C214.533 392.933 239.067 396.133 247.333 380C248.267 378.133 256.267 352 265.2 322C286.133 252 283.867 258.133 289.067 257.6C296.4 256.933 296.533 260.4 290.667 286.133C257.067 433.2 254.533 444.667 255.867 447.6C257.2 450.533 258 450.667 272 450.667H286.667V520.267C286.667 588 286.8 590 289.467 595.6C296 609.2 313.6 612.933 325.333 603.2C327.6 601.2 330.133 598.4 331.067 596.8C332.267 594.8 332.8 575.6 333.333 522.667L334 451.333H341.333H348.667L349.333 522.667C349.867 575.6 350.4 594.8 351.6 596.8C352.533 598.4 355.067 601.2 357.333 603.2C369.067 612.933 386.667 609.2 393.2 595.6C395.867 590 396 588 396 520.267V450.667H410.533C428.8 450.667 429.2 450.4 426.933 436.933C425.467 428.933 408.4 353.467 391.867 282.533C389.733 273.2 388 264.533 388 263.067C388 257.067 395.867 255.2 399.2 260.267C400.133 262 401.733 266.267 402.533 270C405.6 282.533 434.667 377.6 436.8 381.467C439.733 387.333 446.133 390.667 454 390.667C463.733 390.667 469.333 386.4 472 376.8C473.333 372.267 472.8 369.333 466.8 348.8C463.2 336.267 455.2 310.667 449.2 292C443.333 273.333 436.667 252.4 434.667 245.733C428.133 223.867 418.533 212 400.4 203.067L390.133 198L343.467 197.733C299.067 197.333 296.267 197.467 288.667 200.133Z" fill="#F0788C"/>
</svg>
