<svg width="683" height="683" viewBox="0 0 683 683" fill="none" xmlns="http://www.w3.org/2000/svg">
<g clip-path="url(#clip0_4_6)">
<path d="M325.733 1.86668C313.733 4.80001 303.867 10.5333 293.867 20.5333C279.867 34.8 274.4 48 274.4 68C274.533 118.8 328.4 150.533 373.467 126.533C404.933 109.733 417.467 70.2667 401.467 38C387.333 9.60001 355.867 -5.46666 325.733 1.86668Z" fill="#65D2E6"/>
<path d="M249.467 162.8C226.533 167.333 207.067 187.067 202.667 210.533C201.867 215.067 201.333 256 201.333 320.267C201.333 409.733 201.6 423.333 203.333 427.733C207.467 437.467 215.2 442.933 225.2 443.067C233.867 443.2 240.933 439.333 245.467 432.133L249.333 426.133V340.4V254.667L252.533 252.667C255.067 250.933 257.733 250.933 260.267 252.533C260.533 252.533 260.933 342.933 261.333 453.333L262 654L264.8 660C271.067 673.2 283.867 681.333 298.667 681.333C313.467 681.2 326.133 673.067 332.133 659.6L335.333 652.667L335.733 536.4C336.133 422.267 336.133 420 338.667 418.667C340.533 417.6 342.133 417.6 344 418.667C346.533 420 346.533 422.267 346.933 537.067L347.333 654L351.067 661.6C359.333 678.267 377.067 686 395.333 680.8C401.333 678.933 404.533 676.933 410 671.467C422.267 659.2 421.333 677.467 421.333 452.533C421.333 274.667 421.6 254.667 423.467 252.8C426 250.133 426.667 250.133 430.4 252.8L433.333 254.8V340.133C433.333 422.533 433.467 425.6 436 430.667C443.2 444.933 463.2 447.6 474.267 435.733C481.467 428 481.333 431.067 481.333 320.267C481.333 256 480.8 215.067 480 210.533C475.467 186.533 456.133 167.2 432.133 162.667C423.333 161.067 258 161.067 249.467 162.8Z" fill="#65D2E6"/>
</g>
<defs>
<clipPath id="clip0_4_6">
<rect width="682.667" height="682.667" fill="white"/>
</clipPath>
</defs>
</svg>
