<svg xmlns="http://www.w3.org/2000/svg" xmlns:xlink="http://www.w3.org/1999/xlink" width="57" height="42" viewBox="0 0 57 42">
  <defs>
    <clipPath id="clip-path">
      <rect id="Rectangle_17046" data-name="Rectangle 17046" width="57" height="42" fill="#fff" stroke="#707070" stroke-width="1"/>
    </clipPath>
  </defs>
  <g id="Mask_Group_3145" data-name="Mask Group 3145" clip-path="url(#clip-path)">
    <g id="status_icon" data-name="status icon" transform="translate(7.5 0)">
      <path id="Path_38118" data-name="Path 38118" d="M25.846,4.846A21,21,0,0,0,7.7,36.417l-2.768,8.3a1.615,1.615,0,0,0,2.043,2.043L15.276,44A21,21,0,1,0,25.846,4.846Z" transform="translate(-4.846 -4.846)" fill="#8bc94d"/>
      <path id="Path_38119" data-name="Path 38119" d="M13.881,22.642a12.4,12.4,0,0,1,8.76-8.76A1.615,1.615,0,1,1,23.475,17,9.167,9.167,0,0,0,17,23.475a1.615,1.615,0,1,1-3.121-.833Zm13.192-7.616a1.615,1.615,0,0,1,1.977-1.144,12.4,12.4,0,0,1,8.76,8.76,1.615,1.615,0,1,1-3.121.833A9.167,9.167,0,0,0,28.217,17,1.615,1.615,0,0,1,27.073,15.026ZM15.025,27.073A1.615,1.615,0,0,1,17,28.217a9.167,9.167,0,0,0,6.472,6.472,1.615,1.615,0,0,1-.833,3.122,12.4,12.4,0,0,1-8.76-8.76A1.615,1.615,0,0,1,15.025,27.073Zm12.048,9.594a1.616,1.616,0,0,1,1.144-1.977,9.167,9.167,0,0,0,6.472-6.472,1.615,1.615,0,1,1,3.121.833,12.4,12.4,0,0,1-8.76,8.76A1.616,1.616,0,0,1,27.073,36.667Z" transform="translate(-4.846 -4.846)" fill="#eceff1" fill-rule="evenodd"/>
      <path id="Path_38120" data-name="Path 38120" d="M25.846,4.846v42A20.912,20.912,0,0,1,15.276,44l-8.3,2.768A1.615,1.615,0,0,1,4.929,44.72l2.768-8.3A21,21,0,0,1,25.846,4.846Z" transform="translate(-4.846 -4.846)" fill="#7db545" fill-rule="evenodd"/>
      <path id="Path_38121" data-name="Path 38121" d="M17.088,17.089a12.335,12.335,0,0,0-3.207,5.553A1.615,1.615,0,1,0,17,23.475,9.167,9.167,0,0,1,23.474,17a1.615,1.615,0,1,0-.833-3.121A12.335,12.335,0,0,0,17.088,17.089ZM17,28.217a1.615,1.615,0,1,0-3.121.833,12.4,12.4,0,0,0,8.76,8.76,1.615,1.615,0,1,0,.833-3.122A9.167,9.167,0,0,1,17,28.217Z" transform="translate(-4.846 -4.846)" fill="#d4d6d8" fill-rule="evenodd"/>
    </g>
  </g>
</svg>
